<?xml version="1.0" encoding="UTF-8"?> <svg xmlns="http://www.w3.org/2000/svg" id="uuid-b18d7c83-0301-4960-91e7-985377867795" viewBox="0 0 83.57 26"><g id="uuid-a5bbe77c-6790-4f76-94f1-e318b5210b71"><g id="uuid-a07e8761-bc64-4ca0-b119-f8d9a4ae5572"><g id="uuid-e63a9bb5-490c-4362-957f-ff24b465dc8c"><path id="uuid-10791109-e5b1-4455-849b-75da3fb128e9" d="m83.56,3.86c.08.36-.31.69-.51.95-1.76,2.17-3.7,4.72-6.02,6.37.17.87.08,2.01-.23,2.63.61.77,1.26,1.5,1.64,2.5-.5,2.6-1.66,4.62-3.5,5.93-1.81,1.29-4.23,1.8-6.99,2.42-5.34,1.21-14.1,2.4-18.07-.74-4.28,2.48-12.94,2.81-16.94-.15-2.85,3.55-14.09,3.24-12.41-3.81-2.09,1.55-5.15,3.69-8.1,4.9-3.41,1.41-9.86,1.24-9.22-3.51.08-.57.31-.88.6-1.39-.99-1.72-1.62-2.91-2.24-4.4C.99,14.14.11,12.52,0,10.53-.21,6.28,3.16,3.58,6.47,2.32c1.69-.65,3.08-1.59,4.76-2.06,2.52-.7,4.66.65,4.82,2.93,2.92-.85,6.48-1.8,10.33-1.24,3.07-2.35,9.07-.9,13.01.21.9.25,2.09.92,2.75.88.56-.02,1.57-.77,2.15-1.03,2.77-1.21,6.38-2.5,10.33-1.83.75.13,1.43.52,2.22.59.55.05,1.21-.11,1.79-.15,9.26-.42,16.96,2.01,24.93,3.24Zm-25.87-.29c-.94.11-1.61,1.13-2.24,1.47.05,0,.08-.02.07-.08.12-.51.33-.9.36-1.47-4.94-1.72-9.76.8-13.31,2.71-2.83,1.54-5.35,3.33-7.13,5.13.65-1.08,1.33-2.14,2.09-3.15.76-1.03,1.62-1.94,2.3-2.86-1.48-.38-2.97-.78-4.46-1.09-2.12-.44-5.07-1.18-6.83-.21-.51.28-.93.96-1.41,1.03-.4.05-1.06-.25-1.56-.29-1.82-.2-3.48-.03-5.12.29-1.54.31-4.79.85-5.2,2.27-.27.92.33,1.81.22,2.71-.1.9-.98,2.08-1.41,2.78-.55.87-1.09,1.65-2.01,2.04-.56-2.73.05-5.16.51-7.47.3-1.42.88-2.89.36-4.33-1.41-.2-2.6.92-4.01,1.47-2.62,1.05-5.55,1.99-5.93,4.98-.22,1.68.43,2.76.9,3.95.98,2.57,2.2,4.76,3.65,6.75-.4.72-1.33.9-1.41,1.9.41.59,1.29.67,2.15.65,2.49,0,4.54-1.24,6.4-2.27,4.03-2.24,6.75-5.69,9.58-8.94.5-.57.91-1.26,1.56-1.62.65,2.89-.6,4.44-1.49,6.81-.35.92-1.41,3.77-.9,5.13.58,1.49,5.47,1.55,6.76.59.65-.49.91-1.59,1.26-2.27.45-.88.83-1.63,1.19-2.42.02,3.2,2.44,4.15,5.06,4.84,5.55,1.45,11.15-1.14,14.19-2.93-.38,2.39.56,2.61,2.45,3.01,4.91,1,9.83-.15,13.82-1.09,3.65-.87,6.6-1.49,7.13-5.05-.58-.51-2.04-.44-3.05-.29-2.95.42-5.8,1.9-9.73,1.62-.71-.05-2.27-.29-2.39-.74-.17-.67,1.06-1.14,2.09-1.32,2.95-.49,7.21,0,9.58-.88,1.14-.42,2.52-1.65,2.37-3.01-.08-.92-1.31-1.39-2.45-1.47-3.25-.2-5.57,1.67-8.98,1.03.43-.54.5-1.41,1.04-1.83,2.5-.05,4.92.44,7.28.29,3.28-.2,5.14-1.57,6.7-3.37.17-.2.58-.41.45-.74-5.68-.85-13.46-3.12-20.5-2.27Zm-1.34,4.08c.59.58,1.88.56,2.64.98-1.04.23-2.33.23-3.28.55.23-.51.42-1.03.63-1.53Zm-9.5,0c-.38,1.69-1.17,3.6-1.62,5.46,2.46.03,5.04-.45,7.55-.6.34-.45.52-1.05.69-1.65.5.7.86,1.99.38,2.99-3.84-.05-6.59,2.99-10.34,2.99-1.69,0-3.11-.93-2.32-2.77,1.15-2.55,3.94-4.35,5.66-6.41Z" fill="#fff"></path></g></g></g></svg> 