<?xml version="1.0" encoding="UTF-8"?> <svg xmlns="http://www.w3.org/2000/svg" id="uuid-5c25615d-b71c-45cc-9cea-5b146b6cf778" viewBox="0 0 34.37 20"><g id="uuid-9f34eb4e-c293-4ea2-b472-aabdff93f825"><g id="uuid-4bb9ad76-2281-42ae-ac5d-2d7acfa6433a"><path id="uuid-a8e5f5bc-4fc8-4f6c-8979-4453b0283077" d="m16.05,19.73l-1.09-.27v-3.97s-.02-3.97-.02-3.97l-2.01-5.73C11.82,2.62,10.91.03,10.91.02,10.91,0,11.31,0,12.96,0h2.05l.05.17c.03.09.51,1.64,1.07,3.44s1.02,3.27,1.02,3.27c0,0,.49-1.55,1.09-3.44L19.34,0h2.06c1.13,0,2.06,0,2.06,0s-.92,2.6-2.04,5.78l-2.04,5.77v3.96c0,2.18,0,3.96-.01,3.96s-.5.12-1.11.27-1.1.27-1.11.26-.5-.12-1.1-.27h0Zm-8.73-2.34c-.37-.09-1.25-.31-1.97-.49l-1.3-.32V3.67H.84l-.42-1.81C.2.87,0,.05,0,.03,0,0,.22,0,4.76,0h4.77s.64,1.82.64,1.82c.35,1,.64,1.82.64,1.83,0,.02-.29.02-1.41.02h-1.41v6.94s0,6.94,0,6.94l-.67-.17h0Zm19.01-6.77V3.67h-1.39c-.76,0-1.39,0-1.39-.01s.28-.8.62-1.76c.34-.96.63-1.79.65-1.83l.03-.07h4.76c2.76,0,4.76,0,4.76.02,0,.01-.8,3.47-.83,3.61v.04h-3.25v12.91l-1.82.45c-1,.25-1.89.47-1.97.49l-.16.04v-6.94h0Z" fill="#fff"></path></g></g></svg> 