<?xml version="1.0" encoding="UTF-8"?> <svg xmlns="http://www.w3.org/2000/svg" id="uuid-d8f735f4-f8e5-4f80-90e4-682ac659cc71" viewBox="0 0 40.87 24"><g id="uuid-445c6543-0151-4692-b746-cb215cf734f0"><g id="uuid-153ce7c6-e6b8-4e83-9ffd-3b9b84277735"><g id="uuid-c0630a18-b523-474e-8c77-b43f4dd6f26f"><path id="uuid-8987963d-e997-4faa-a7af-fe19e22b1a72" d="m36.25,21.56v-2.36h.4s.4.02.4.02v.22c.02.12.03.22.04.22s.09-.06.19-.13.24-.17.33-.21c.78-.36,2.06-.2,2.71.34.16.13.37.44.46.69.08.22.08.23.08,1.89v1.67h-.38s-.38.02-.38.02v-1.68c-.02-1.66-.02-1.68-.1-1.87-.24-.53-.92-.83-1.66-.73-.52.07-.88.31-1.08.71-.16.31-.18.58-.18,2.14v1.42h-.83v-2.36h0Zm-9.28,2.32s-.01-1.08,0-2.35v-2.31s.41,0,.41,0h.4s0,2.35,0,2.35v2.36h-.4c-.28,0-.4-.01-.41-.04h0Zm-6.91-2.32v-2.36h.4s.4.02.4.02v2.35s.02,2.35.02,2.35h-.83v-2.36Zm-4.03,2.09c-.07-.15-.19-.4-.26-.55-.07-.15-.15-.32-.18-.38-.03-.05-.15-.31-.27-.57-.12-.26-.25-.53-.29-.61-.09-.19-.5-1.05-.61-1.29-.05-.12-.18-.39-.28-.6s-.18-.4-.18-.42c0-.02.17-.03.42-.02h.42s.23.52.23.52c.13.28.3.67.39.87.09.2.26.57.37.84.2.45.28.65.59,1.39.07.18.15.31.16.3.01-.02.07-.13.12-.26.05-.13.15-.35.21-.49s.16-.37.21-.49c.17-.41.64-1.43.93-2.05l.28-.61h.38c.32-.02.38-.01.38.03,0,.03-.06.17-.14.32-.23.44-.83,1.63-.93,1.83-.08.16-.58,1.16-1.11,2.2l-.16.31h-.28s-.28.02-.28.02l-.13-.27h0Zm-3.87-2.09v-2.36h.83v4.72h-.83v-2.36Zm-6.1,0v-2.35s.41,0,.41,0h.4s0,.22,0,.22c0,.13,0,.23.02.23s.11-.07.22-.15c.11-.08.24-.17.3-.19.6-.28,1.59-.26,2.27.05.29.13.63.43.78.7.21.37.23.53.23,2.28v1.58h-.39s-.39-.02-.39-.02l-.02-1.67c-.02-1.65-.02-1.67-.1-1.86-.16-.37-.48-.6-.95-.7-.77-.17-1.5.11-1.77.66-.17.35-.2.59-.2,2.15v1.44h-.83v-2.35Zm25.88-2.45c-.49.02-.98.13-1.43.33-.29.13-.39.2-.69.47-.27.25-.37.37-.47.56-.2.39-.26.62-.26,1.03,0,.44.09.77.3,1.15.41.75,1.25,1.23,2.32,1.32.65.06,1.36-.05,1.89-.29.68-.31,1.22-.94,1.38-1.61.08-.33.08-.88,0-1.15-.22-.79-.94-1.43-1.9-1.69-.38-.1-.77-.14-1.15-.13h0Zm.12.47c.86,0,1.52.36,1.85.99.17.33.22.53.22.92,0,.39-.07.68-.25,1.02-.26.51-.71.83-1.32.95-.14.03-.37.05-.52.05-1.19,0-1.97-.74-2.03-1.9-.02-.43.04-.74.23-1.08.33-.59,1.02-.96,1.82-.96Zm-8.6,4.39c-.15-.01-.38-.05-.5-.08-.25-.06-.69-.25-.8-.34-.07-.06-.06-.06.1-.24.09-.1.18-.18.2-.18s.12.05.24.11c.37.2.63.26,1.05.26.43,0,.61-.05.82-.24.11-.1.22-.36.22-.51s-.12-.39-.29-.55c-.18-.18-.34-.28-1.09-.71-.77-.44-1.04-.76-1.04-1.23,0-.51.4-.9,1.13-1.09.62-.15,1.61.02,1.94.34l.08.08-.18.16-.18.16-.25-.11c-.32-.15-.59-.22-.82-.22-.67,0-1.08.46-.82.9.08.14.42.38.97.71.85.51,1.18.82,1.32,1.24.13.4.03.75-.3,1.05-.41.37-1.08.55-1.8.49h0Zm-21.53,0c-1.03-.08-1.65-.49-1.88-1.25-.06-.19-.06-.38-.06-1.87v-1.66h.4s.4-.02.4-.02v1.65c.03,1.73.03,1.8.2,2.09.11.19.33.38.57.48.21.09.25.09.75.09s.53,0,.74-.09c.24-.1.41-.24.55-.43.21-.3.21-.26.23-2.09l.02-1.69h.75v1.59c.01.96,0,1.66-.02,1.77-.02.1-.1.3-.18.45-.38.71-1.27,1.06-2.46.96h0Z" fill="#fff"></path><path id="uuid-b09d6db2-7576-475d-8ede-087996706e89" d="m19.29,16.63c-1.24-.14-2.53-.55-3.59-1.15-1.94-1.09-3.42-2.91-3.98-4.91-.13-.47-.24-1.01-.27-1.36l-.02-.27h4.17s4.17.02,4.17.02v3.78c.01,2.08,0,3.82,0,3.86-.01.04-.04.07-.06.07-.02,0-.21-.02-.41-.05h0Z" fill="#fff" fill-rule="evenodd"></path><path id="uuid-4bc13dcb-63ec-4c2c-8fec-664f36b807e8" d="m21.1,12.82v-3.86s4.16,0,4.16,0c2.28,0,4.16,0,4.18.02.04.03-.15,1.32-.21,1.4-.01.02-.07.18-.12.37-.09.32-.34.93-.45,1.11-.03.05-.1.18-.16.3-.18.35-.37.65-.76,1.16-.39.51-1.19,1.28-1.75,1.66-.08.05-.16.11-.18.13-.02.02-.11.07-.19.12s-.18.11-.21.14c-.06.05-.22.14-.75.4-.11.05-.21.11-.23.12-.02.01-.09.04-.16.07-.14.05-.39.15-.57.22-.07.03-.28.09-.46.14-.19.05-.39.11-.45.13-.06.02-.29.06-.52.1-.23.04-.5.08-.61.1-.11.02-.28.04-.38.05h-.19s0-3.85,0-3.85h0Z" fill="#fff" fill-rule="evenodd"></path><path id="uuid-b800fb85-fce4-4430-95ec-92f727d83a5b" d="m11.43,3.86V0l.42.02c.85.04,1.84.25,2.63.54,2.3.85,4.11,2.63,4.87,4.76.25.71.37,1.29.41,1.99l.02.42h-8.35v-3.86h0Z" fill="#fff" fill-rule="evenodd"></path><path id="uuid-b288f0e5-c045-41f6-9c94-8f75bc6cbcdb" d="m21.09,3.87V.02h4.03c2.21,0,4.07,0,4.13-.01.06,0,.13,0,.15,0,.03.01.04.81.04,3.87v3.85h-8.35v-3.86h0Z" fill="#fff" fill-rule="evenodd"></path></g></g></g></svg> 