<?xml version="1.0" encoding="UTF-8"?> <svg xmlns="http://www.w3.org/2000/svg" id="uuid-16bb8403-1234-4f11-8ff8-21996129926d" viewBox="0 0 37.41 20"><g id="uuid-6d17d6ad-7c5c-42ef-aa91-3e2831176869"><g id="uuid-5935b7b7-4886-49e6-8715-67f1815340d2"><g id="uuid-7b6fae9b-7d94-4eb4-8337-15df5f3b2c05"><g id="uuid-d8b4f2f9-29e5-4817-b7f5-de835a9915b1"><path d="m16.33,14.36c0,1.05-.46,1.64-2.76,1.64-.28,0-.55-.01-.83-.05V2.14C12.74,1.09,13.15,0,15.46,0c.29,0,.58.02.87.08v14.28Zm-4.92-2.11c0,1.94-1.43,3.36-4.33,3.64-2.22.13-4.44.08-6.64-.16-.06-.22-.09-.45-.1-.68,0-1.7,1.05-2.11,2.01-2.11s2.6.16,3.79.16c1.29,0,1.69-.39,1.69-.76,0-.49-.53-.69-1.53-.86l-2.78-.47c-2.3-.37-3.52-1.78-3.52-3.27,0-1.82,1.45-3.34,4.31-3.61,2.08-.13,4.16-.07,6.23.18.06.21.09.43.08.65,0,1.7-1.01,2.07-2,2.07-.72,0-1.89-.12-3.22-.12s-1.92.33-1.92.73.53.6,1.37.73l2.66.43c2.7.44,3.87,1.81,3.87,3.49l.03-.02Zm14.54,7.43c.54.21,1.12.32,1.7.32,1.33,0,2.05-.42,2.6-1.49l7.15-14.09c-.47-.19-.98-.29-1.49-.3-1.27-.12-2.47.62-2.94,1.81l-2.32,4.84-4.55-6.55c-.5-.12-1.01-.18-1.53-.19-1.3-.06-2.56.46-3.45,1.41l-4.42,4.28,3.55,4.94c.67.93,1.77,1.45,2.92,1.37.7.01,1.4-.11,2.05-.34l-4.27-5.67,3.02-2.85,4.98,6.88-3.02,5.63Z" fill="#fff" fill-rule="evenodd"></path></g></g></g></g></svg> 