<?xml version="1.0" encoding="UTF-8"?> <svg xmlns="http://www.w3.org/2000/svg" id="uuid-0642d798-1eaf-4002-b9e4-b19efc5d3556" viewBox="0 0 46.25 20"><g id="uuid-4723bb79-51d7-4d46-a89a-eafc63a1da4e"><g id="uuid-0bad5a66-fa23-4c0e-b1d8-3fcf66eb6ecd"><g id="uuid-62ce825a-e077-41cc-8bf3-25e041f4f8db"><g id="uuid-c3cf1f84-1888-409d-a31e-0378dd885786"><path id="uuid-194cd2b4-318a-42ba-b5f5-f6c91ebc45e6" d="m5.62,5.47v2.6h5.47v5.44h-5.47v6.44H0V.03s0-.03.03-.03h11.91l.38,5.47h-6.71Zm22.75-2.4c1.86,1.91,2.8,4.22,2.8,6.92s-.93,5.04-2.8,6.95c-1.86,1.91-4.11,2.87-6.75,2.87s-4.91-.96-6.77-2.87c-1.86-1.91-2.8-4.23-2.8-6.95s.93-5.01,2.8-6.92c1.86-1.91,4.12-2.87,6.77-2.87s4.88.96,6.75,2.87Zm-8.36,10.91c0,.44.16.83.49,1.16.33.33.72.49,1.18.49s.85-.16,1.17-.49c.32-.33.48-.71.48-1.16V5.9c0-.46-.16-.86-.48-1.19-.32-.33-.71-.49-1.17-.49s-.86.16-1.18.49c-.33.33-.49.72-.49,1.19v8.08Zm19.92,6.02l-2.82-5.05-2.74,5.05h-6.18l5.88-10.34L28.51,0h6.35l2.32,4.31,2.35-4.31h6.15l-5.44,9.6,6,10.4h-6.32s0,0,0,0Z" fill="#fff"></path></g></g></g></g></svg> 