<?xml version="1.0" encoding="UTF-8"?> <svg xmlns="http://www.w3.org/2000/svg" id="uuid-4ed1699b-c394-404f-9e1b-3d6e841e9966" viewBox="0 0 116 20"><g id="uuid-1222d842-dd8f-4d68-9553-d3a0db16af25"><g><path id="uuid-1e46a31b-2692-4638-8ea6-9d508856c768" d="m82.62,19.68h1.46V1.22h-1.46v18.46Zm15.48-10.8c-.38-1.12-1.06-1.99-2.18-2.44-.88-.35-1.78-.55-2.77-.39-1.16.19-2.15.64-2.97,1.48-.25.26-.52.5-.78.86,0-.42,0-.75,0-1.08,0-.34,0-.68,0-1.04-.53.01-1.01-.03-1.47.03-.09,1.65-.05,12.98.05,13.4.47-.04.95.04,1.43-.04v-9.29c.08-.17.14-.33.22-.47.42-.76.97-1.39,1.72-1.85,1.03-.64,2.13-.75,3.27-.47.78.19,1.39.65,1.79,1.36.37.64.49,1.35.49,2.06.02,2.73,0,5.47.01,8.2,0,.16-.05.33.05.49h1.45v-.39c0-2.85,0-5.7,0-8.55,0-.64-.1-1.26-.3-1.87h0Zm17.75,8.71c-.22-.69-.74-1.04-1.4-1.14-.61-.09-1.16.15-1.55.66-.26.34-.31.73-.31,1.15,0,.65.34,1.09.88,1.37.89.45,1.89.1,2.33-.8.07-.14.03-.33.2-.42v-.5c-.19-.04-.12-.23-.15-.33h0Zm-5.15,1.16c-.62.57-1.37.87-2.17,1.06-.24.06-.48.13-.73.1-.05,0-.08.05-.09.1h-1.3c-.02-.07-.07-.09-.15-.1-1.26-.14-2.35-.61-3.29-1.47-.98-.89-1.58-2-1.92-3.25-.14-.53-.25-1.08-.25-1.64,0-.71-.03-1.42.1-2.12.09-.49.22-.98.4-1.45.61-1.54,1.61-2.73,3.15-3.42.58-.26,1.18-.46,1.83-.5.29-.02.58-.11.88-.08,1.01.08,2.01.24,2.9.77.21.13.36.33.61.41v1.49c-.17,0-.28-.08-.38-.16-.58-.48-1.22-.84-1.96-.95-.56-.08-1.1-.22-1.69-.1-.58.11-1.14.22-1.67.5-1.04.54-1.73,1.39-2.15,2.46-.25.64-.46,1.29-.41,1.99.01.19-.12.33-.1.53.09,1.09.19,2.17.72,3.16.68,1.29,1.75,2.09,3.17,2.44.44-.07.86.11,1.31.03.41-.08.84-.05,1.26-.19.53-.19,1.02-.43,1.46-.78.13-.1.26-.2.47-.24.04.48,0,.95.02,1.43h0Z" fill="#fff" fill-rule="evenodd"></path><path id="uuid-1b85bc91-736d-491e-976f-3ef4b8ae9113" d="m37.34,2.39c0,1.12-.89,2.25-2.22,2.26-1.35.01-2.28-1.02-2.29-2.23-.01-1.35,1.14-2.32,2.27-2.24,1.19-.09,2.25,1.03,2.25,2.21h0Zm-.41,3.81c.09.39.13,12.04.04,13.44-.38.09-2.48.11-3.76.04V6.24c.37-.08,2.63-.11,3.72-.04h0Zm-18.44,2.88c.17.56.23,1.13.23,1.71,0,2.92,0,5.83,0,8.75,0,.03,0,.07-.01.1-.36.09-2.58.11-3.73.05-.11-.13-.06-.28-.06-.42,0-2.44,0-4.87,0-7.31,0-.41,0-.83-.12-1.23-.22-.71-.86-1.34-1.7-1.38-.41-.02-.83-.04-1.23.11-.79.29-1.29.84-1.54,1.63-.05.16-.03.33-.03.49,0,2.54,0,5.07,0,7.61v.5h-3.73c-.09-.37-.13-12.18-.04-13.44.38-.08,2.77-.1,3.76-.03v1.19c.42-.42.81-.73,1.28-.96,1.04-.51,2.13-.66,3.28-.49.82.13,1.56.4,2.21.92.73.58,1.17,1.33,1.43,2.2h0Zm57.78-2.98v3.79c-.44-.16-.85-.33-1.29-.39-.78-.11-1.53-.03-2.19.42-.63.42-.97,1.02-.97,1.79,0,2.49,0,4.97,0,7.46v.51h-3.75c-.07-.4-.08-12.87-.01-13.47h3.75v1.2c1.23-1.49,2.72-1.8,4.46-1.31h0Zm-28.02,9.39c-.66.97-1.87,1.32-2.77,1.18-1.33-.21-2.13-.99-2.53-2.21-.42-1.26-.33-2.51.29-3.69.83-1.61,2.99-2.11,4.47-.94.29.23.52.51.72.86,0,1.43,0,2.89,0,4.35,0,.18-.07.32-.17.46h0ZM52.3,0h-3.9s.02.08.03.12c0,.17-.01.33-.01.5,0,2.02,0,4.04,0,6.06,0,.13.07.29-.1.42-.24-.19-.47-.38-.72-.53-1.6-.92-3.26-.9-4.92-.22-1.78.73-2.82,2.14-3.37,3.92-.4,1.28-.49,2.58-.31,3.91.14,1.07.44,2.09,1.01,3.02.83,1.37,2,2.26,3.57,2.64.17.04.4-.02.53.17h1.6c0-.05.04-.09.09-.1.93-.06,1.71-.46,2.42-1.04.05-.04.09-.14.22-.08v.87c.57.08,3.48.07,3.87-.02v-.39c0-6.26,0-12.53,0-18.79,0-.12,0-.23-.01-.35-.32,0-.64,0-.96-.01s-.64,0-.96,0c.32,0,.64,0,.96,0s.64,0,.96.01l.02-.1ZM0,19.7h3.9V1.19H0v18.51Zm31.15-4.44c.12,1.17-.13,2.23-.95,3.11-.62.66-1.39,1.07-2.24,1.31-.41.12-.83.25-1.27.22-.05,0-.08.04-.09.1h-2.2c-.25-.19-.56-.13-.83-.19-.99-.23-1.93-.55-2.76-1.15v-3.42c.17-.04.22.08.31.15,1.22.93,2.6,1.49,4.14,1.61.51.04.99-.04,1.46-.2.53-.18.77-.61.69-1.12-.06-.36-.3-.58-.6-.74-.35-.19-.73-.31-1.11-.41-.76-.22-1.53-.39-2.27-.69-.65-.27-1.25-.6-1.74-1.12-.52-.55-.79-1.19-.91-1.93-.13-.78-.03-1.51.27-2.22.41-.98,1.15-1.65,2.11-2.08,1.27-.57,2.6-.69,3.98-.53.9.11,1.75.33,2.56.73.24.12.46.26.69.39v3.47c-.61-.45-1.21-.85-1.88-1.15-.67-.3-1.38-.45-2.11-.51-.44-.03-.86.05-1.26.21-.4.16-.71.47-.66,1.05.03.29.14.49.38.66.32.22.68.33,1.04.45.85.27,1.72.47,2.55.8.65.26,1.26.6,1.75,1.1.58.59.88,1.31.96,2.12h0Zm26.65-3.94c.22-.78.56-1.44,1.19-1.94.73-.58,2.23-.59,2.89-.05.65.52.89,1.19.94,1.99h-5.03Zm8.1-1.78c-.58-1.57-1.6-2.73-3.21-3.29-1.06-.37-2.16-.46-3.28-.29-1.72.26-3.06,1.11-4.06,2.5-.87,1.22-1.23,2.6-1.34,4.07-.06.81.02,1.62.2,2.41.23,1.04.67,1.99,1.37,2.81,1.06,1.24,2.43,1.9,4.03,2.15.08.01.17-.01.19.1h2.3c.01-.08.07-.1.14-.1.84,0,1.63-.26,2.38-.6.28-.13.57-.25.79-.49,0-1,0-2,0-2.99,0-.01-.02-.03-.03-.04,0-.01-.02-.02-.03-.03-.06.03-.12.05-.18.09-1.33.84-2.79,1.18-4.36.99-.97-.12-1.82-.48-2.45-1.26-.39-.5-.62-1.06-.69-1.74h8.7c0-.52.01-.99,0-1.47-.03-.96-.16-1.9-.49-2.81h0Z" fill="#fff" fill-rule="evenodd"></path></g></g></svg> 