<?xml version="1.0" encoding="UTF-8"?> <svg xmlns="http://www.w3.org/2000/svg" id="uuid-90c5935b-fcab-4d4e-913b-076f0d8248b1" viewBox="0 0 93.39 20"><g id="uuid-3f875a77-4c50-45e9-ad6f-d9e93739ed44"><g><path d="m36.1,11.77l1.47-3.88c.09-.23.41-.23.49,0l1.48,3.88h-3.44m3.34-7.17c-.11-.28-.37-.46-.67-.46h-1.91c-.3,0-.56.18-.67.46l-4.05,10.68c-.06.15-.04.32.06.45.09.13.24.21.4.21h1.57c.2,0,.38-.12.45-.31l.42-1.11c.07-.19.25-.31.45-.31h4.62c.2,0,.38.12.45.31l.42,1.11c.07.19.25.31.45.31h1.57c.16,0,.31-.08.4-.21.09-.13.11-.3.06-.45l-4.05-10.68h0m53.43-.46h-1.55c-.41,0-.78.23-.96.6l-3.08,6.44-3.08-6.44c-.18-.37-.55-.6-.96-.6h-1.55c-.28,0-.51.23-.51.51v10.78c0,.28.23.51.51.51h1.49c.14,0,.27-.05.36-.15.1-.1.15-.23.15-.36v-5.59l2.82,5.81c.09.18.26.29.46.29h.61c.2,0,.37-.11.46-.29l2.83-5.81v5.59c0,.28.23.51.51.51h1.49c.28,0,.51-.23.51-.51V4.64c0-.28-.23-.51-.51-.51h0m-61.12,5.08h-4.93v-2.65h6.24c.21,0,.4-.13.47-.33l.51-1.42c.05-.15.03-.32-.06-.46-.09-.13-.25-.21-.41-.21h-8.68c-.28,0-.5.22-.5.5v10.79c0,.28.22.5.5.5h1.42c.28,0,.5-.22.5-.5v-3.79h4.42c.21,0,.4-.13.47-.33l.51-1.42c.06-.15.03-.33-.06-.46-.09-.13-.25-.21-.41-.21h0m29.58,4.39h-2.07v-7.14h2.07c2.19,0,3.66,1.45,3.66,3.57s-1.48,3.57-3.66,3.57m-.07-9.47h-4.07c-.28,0-.5.22-.5.5v10.79c0,.28.22.5.5.5h4.07c3.69,0,6.24-2.56,6.24-5.86v-.07c0-3.3-2.55-5.86-6.23-5.86h0m-6.83.02h-1.51c-.28,0-.5.22-.5.5v7.13l-5-7.34c-.13-.19-.35-.31-.58-.31h-1.89c-.28,0-.5.22-.5.5v10.8c0,.28.22.5.5.5h1.51c.28,0,.5-.22.5-.5v-7.01l4.92,7.2c.13.19.35.31.58.31h1.98c.28,0,.5-.22.5-.5V4.65c0-.13-.05-.26-.15-.35-.09-.09-.22-.15-.35-.15h0m23.26,5.94c0,1.92-1.55,3.47-3.46,3.47-1.91,0-3.46-1.56-3.46-3.47v-.13c0-1.92,1.55-3.47,3.46-3.47s3.46,1.55,3.46,3.47v.13h0m-3.46-6.03c-3.25,0-5.89,2.64-5.89,5.9v.13c0,3.26,2.64,5.9,5.89,5.9s5.89-2.64,5.89-5.9v-.13c0-3.26-2.64-5.9-5.89-5.9h0" fill="#fff" fill-rule="evenodd"></path><path d="m9.04,14.59c0,.17-.04.4-.23.59l-.72.61L1.55,9.7v-2.39l7.19,6.7c.11.11.3.32.3.59h0Zm9.96-7.11v2.22l-8.13,7.79c-.14.13-.27.18-.44.18s-.33-.06-.46-.19l-.74-.67,9.77-9.34h0Zm-6.2,3.95l-2.25,2.13L3.4,6.82c-.36-.34-.56-.79-.56-1.28s.2-.94.55-1.27l2.26-2.13,7.14,6.74c.75.7.75,1.85,0,2.55h0Zm-1.33-5.87l2.35-2.22c.36-.34.84-.53,1.35-.53s.99.19,1.35.53l2.42,2.29-3.7,3.49-1.35-1.27-2.42-2.29h0Zm9.03-.35L15.19.11l-.11-.11-.11.1-4.64,4.42L6.18.59h0s0,0,0,0l-.52-.41-.11-.09-.1.09L.05,5.2l-.05.04v5.06l.05.04,10.12,9.55.11.1.11-.1,10.11-9.55.04-.04v-5.05l-.04-.04h0Z" fill="#fff" fill-rule="evenodd"></path></g></g></svg> 