<?xml version="1.0" encoding="UTF-8"?> <svg xmlns="http://www.w3.org/2000/svg" id="uuid-7f3edb4d-133e-4edb-a321-713a64b1e7d3" viewBox="0 0 184.6 20"><g id="uuid-ba9fa9c3-18b8-4f3a-ab43-c8a922919578"><g id="uuid-12f42b87-5733-40b6-b9a6-a325621beb94"><path id="uuid-835fbef7-a242-419e-9dd7-9168e0a90477" d="m10.94,8.42L18.37.31v8.11h10.58l-10.58,4.21v7.02l-6.95-4.25L.71,19.62l6.31-6.91L0,8.42h10.94Zm20.57-4.16v.02h-11.37V.29h11.37c.36,0,.66.29.66.62v2.72c0,.33-.28.62-.66.62Zm0,15.42v.02h-11.37v-3.99h11.37c.36,0,.66.29.66.62v2.72c0,.33-.28.62-.66.62ZM183.93.29c.38,0,.66.29.66.62v2.72c0,.35-.28.64-.66.64h-4.96v14.8c0,.33-.28.62-.66.62h-2.92c-.38,0-.69-.27-.69-.62V4.27h-4.96c-.38,0-.69-.29-.69-.64V.91c0-.33.31-.62.69-.62h14.19Zm-60.58,8.28c.17-.38.24-.8.21-1.24,0-.44-.07-.86-.21-1.26-.14-.35-.36-.69-.62-.95-.26-.24-.59-.47-.97-.62-.38-.18-.81-.24-1.26-.24h-4.3v6.16h3.27c1.26,0,1.9-.09,2.28-.24.38-.16.69-.33.95-.6.28-.29.5-.62.64-1Zm4.03-3.94c.33.84.47,1.75.5,2.66,0,.93-.17,1.97-.52,2.81-.33.84-.85,1.57-1.5,2.21-.66.62-1.45,1.13-2.37,1.51-.93.35-1.97.55-3.13.55h-4.13v4.65c0,.35-.28.64-.66.64h-2.92c-.38,0-.69-.29-.69-.64V.89c0-.33.31-.62.69-.62h7.71c1.16,0,2.21.2,3.16.58.93.38,1.73.89,2.37,1.53.66.64,1.16,1.4,1.5,2.26Zm-29.02,1.22c-.02.4.09.64.26.86.19.24.45.44.76.6.36.18.81.31,1.28.42.52.11,1.09.2,1.61.29,1,.13,1.97.33,2.9.53.97.22,1.83.55,2.56,1.02.76.47,1.38,1.06,1.8,1.82.43.75.64,1.71.57,2.86-.05,1.11-.36,2.06-.9,2.81-.55.75-1.23,1.35-2.04,1.79-.81.44-1.61.78-2.61.93-.97.18-2.06.22-3.01.18-2.37-.09-5.86-1.37-7.59-3.59-.14-.18-.31-.49.07-.84.38-.35,2.18-2.06,2.18-2.06.36-.35.71-.11.85.11,1.02,1.4,3.06,2.44,4.67,2.5.85.02.95,0,1.47-.07.47-.07.9-.18,1.31-.33.36-.16.66-.35.9-.64.21-.27.36-.64.38-1.06s-.09-.75-.31-1.02c-.21-.29-.55-.51-.9-.71-.4-.2-.9-.33-1.42-.42-.57-.11-1.14-.2-1.68-.27-.9-.11-1.83-.29-2.68-.51-.9-.24-1.71-.58-2.4-1.02-.71-.44-1.31-1.02-1.71-1.73-.43-.71-.64-1.53-.59-2.55.05-1.02.31-1.93.81-2.68s1.14-1.37,1.9-1.82c.76-.47,1.61-.8,2.59-1,1.85-.4,3.73-.33,5.58.22,1.99.6,3.58,2.02,4.32,3.03.14.2.26.49-.02.8-.28.29-2.04,1.9-2.04,1.9-.38.33-.76.27-1-.04-1.07-1.48-2.47-2.15-4.08-2.24-1.76-.16-3.7.22-3.77,1.9Zm-10.61,6.84c.31-.78.5-1.66.5-2.64s-.17-1.88-.5-2.64c-.33-.75-.78-1.4-1.33-1.9-.55-.49-1.21-.89-1.95-1.15-.76-.27-1.57-.4-2.42-.4s-1.68.13-2.44.4c-.74.27-1.4.64-1.95,1.15-.55.51-1,1.13-1.33,1.88s-.5,1.64-.5,2.66.17,1.9.5,2.66c.33.75.78,1.4,1.33,1.88.55.49,1.19.89,1.92,1.13.74.27,1.57.4,2.44.4s1.66-.13,2.42-.4c.74-.27,1.4-.64,1.97-1.15.55-.51,1-1.13,1.33-1.88Zm1.68-10.06c.97.84,1.73,1.9,2.33,3.19.57,1.24.85,2.66.85,4.21,0,1.46-.26,2.81-.78,4.03s-1.26,2.28-2.18,3.17c-.93.89-2.06,1.57-3.37,2.06-1.28.47-2.73.71-4.27.71-1.42,0-2.78-.22-4.03-.66-1.28-.47-2.42-1.11-3.37-1.97-.97-.86-1.76-1.9-2.3-3.15-.57-1.24-.85-2.66-.85-4.23s.28-2.97.85-4.21c.57-1.24,1.35-2.3,2.33-3.15.97-.86,2.11-1.53,3.39-1.97,1.28-.44,2.61-.66,4.01-.66s2.78.22,4.03.66c1.28.47,2.42,1.11,3.37,1.97Zm56.17,10.06c.33-.78.5-1.66.5-2.64s-.17-1.88-.5-2.64c-.33-.75-.78-1.4-1.33-1.9-.55-.49-1.21-.89-1.95-1.15-.76-.27-1.57-.4-2.42-.4s-1.68.13-2.44.4c-.74.27-1.4.64-1.95,1.15-.55.51-1,1.13-1.33,1.88s-.5,1.64-.5,2.66.17,1.9.5,2.66c.33.75.78,1.4,1.33,1.88.55.49,1.19.89,1.92,1.13.74.27,1.57.4,2.44.4s1.66-.13,2.42-.4c.74-.27,1.4-.64,1.97-1.15.55-.51,1-1.13,1.33-1.88Zm1.71-10.06c.95.84,1.73,1.9,2.33,3.19.57,1.24.85,2.66.85,4.21,0,1.46-.26,2.81-.78,4.03-.52,1.22-1.26,2.28-2.18,3.17-.93.89-2.06,1.57-3.37,2.06-1.28.47-2.73.71-4.27.71-1.42,0-2.78-.22-4.03-.66-1.28-.47-2.42-1.11-3.37-1.97-.97-.86-1.76-1.9-2.3-3.15-.57-1.24-.85-2.66-.85-4.23s.28-2.97.85-4.21c.57-1.24,1.35-2.3,2.33-3.15.97-.86,2.11-1.53,3.39-1.97,1.28-.44,2.61-.66,4.01-.66s2.78.22,4.03.66c1.28.47,2.42,1.11,3.37,1.97ZM50.19.29c.38,0,.69.29.69.62v12.09c0,1.11-.24,2.1-.66,2.97-.43.86-1.02,1.59-1.78,2.19-.74.6-1.61,1.04-2.61,1.35-.97.29-2.04.44-3.13.44s-2.18-.16-3.16-.44c-1-.31-1.87-.75-2.63-1.35-.76-.6-1.35-1.33-1.8-2.19-.45-.86-.66-1.86-.66-2.97V.91c0-.33.28-.62.66-.62h2.92c.36,0,.66.29.66.62v12c0,.51.09.95.28,1.33s.45.69.76.93c.33.27.74.47,1.19.6.45.13,1.28.2,1.8.2s1.31-.07,1.76-.2c.43-.13.83-.33,1.14-.6.31-.24.57-.55.74-.93s.26-.82.26-1.33V.91c0-.33.31-.62.66-.62h2.92Zm20.53,18.34c.5.58.14,1.04-.47,1.02h-3.73c-.21,0-.43-.11-.55-.27l-6.74-8.28c-.28-.4,0-.71.36-.71h1.8c1.26,0,1.92-.09,2.28-.24.38-.16.69-.33.95-.6.28-.29.5-.62.64-1,.17-.38.24-.8.24-1.24s-.07-.86-.21-1.24c-.14-.38-.36-.69-.62-.95-.26-.27-.59-.49-.97-.64-.38-.16-.81-.24-1.26-.24h-4.32v14.8c0,.33-.28.62-.66.62h-2.92c-.36,0-.66-.27-.66-.62V.89c0-.33.31-.62.66-.62h7.71c1.16,0,2.23.2,3.16.58.95.38,1.76.89,2.4,1.53.66.64,1.16,1.4,1.5,2.26.33.84.5,1.75.5,2.68,0,4.54-3.82,5.83-3.82,5.83l4.75,5.49Zm98.6,0c.5.58.14,1.04-.45,1.02h-3.73c-.21,0-.43-.11-.55-.27l-6.74-8.28c-.28-.4,0-.71.36-.71h1.8c1.26,0,1.9-.09,2.28-.24.38-.16.69-.33.95-.6.28-.29.5-.62.64-1,.17-.38.24-.8.24-1.24s-.07-.86-.21-1.24c-.14-.38-.36-.69-.62-.95-.26-.27-.59-.49-.97-.64-.38-.16-.81-.24-1.26-.24h-4.32v14.8c0,.33-.28.62-.66.62h-2.92c-.36,0-.66-.27-.66-.62V.89c0-.33.31-.62.66-.62h7.69c1.16,0,2.23.2,3.16.58.95.38,1.76.89,2.4,1.53.66.64,1.16,1.4,1.5,2.26.33.84.5,1.75.5,2.68,0,4.54-3.82,5.83-3.82,5.83l4.75,5.49Z" fill="#fff" fill-rule="evenodd"></path></g></g></svg> 